<svg width="32" height="32" viewBox="0 0 32 32" fill="none" xmlns="http://www.w3.org/2000/svg">
<g id="instagram 1" clip-path="url(#clip0_2178_9515)">
<path id="Vector" fill-rule="evenodd" clip-rule="evenodd" d="M15.9992 12.5011C18.163 12.5011 19.917 14.228 19.917 16.3583C19.917 18.4881 18.1629 20.215 15.9992 20.215C13.8355 20.215 12.0814 18.4881 12.0814 16.3583C12.0814 14.228 13.8355 12.5011 15.9992 12.5011ZM15.9992 10.9587C12.97 10.9587 10.5143 13.3761 10.5143 16.3583C10.5143 19.34 12.97 21.7578 15.9992 21.7578C19.0284 21.7578 21.4841 19.34 21.4841 16.3583C21.4841 13.3761 19.0285 10.9587 15.9992 10.9587ZM21.6535 9.66077C21.3494 9.66553 21.0534 9.76006 20.8029 9.93248C20.5524 10.1049 20.3584 10.3475 20.2453 10.6299C20.1322 10.9122 20.1051 11.2217 20.1673 11.5194C20.2296 11.8171 20.3784 12.0897 20.5952 12.3031C20.8119 12.5165 21.0869 12.661 21.3855 12.7186C21.6841 12.7762 21.9931 12.7442 22.2737 12.6268C22.5542 12.5093 22.7938 12.3115 22.9622 12.0583C23.1307 11.8051 23.2206 11.5077 23.2206 11.2036C23.2173 10.7912 23.0504 10.397 22.7565 10.1076C22.4626 9.81832 22.0659 9.65758 21.6535 9.66077ZM12.1706 7.98169H19.8278C22.3188 7.98169 24.3382 9.96967 24.3382 12.4216V20.2945C24.3382 22.7469 22.3188 24.7344 19.8278 24.7344H12.1706C9.67959 24.7344 7.66018 22.7469 7.66018 20.2945V12.4216C7.66018 9.96967 9.67956 7.98169 12.1706 7.98169ZM11.4484 6.44616C8.48752 6.44616 6.0872 8.80929 6.0872 11.7239V20.9922C6.0872 23.9073 8.48749 26.27 11.4484 26.27H20.55C23.5109 26.27 25.9112 23.9073 25.9112 20.9922V11.7239C25.9112 8.80926 23.5109 6.44616 20.55 6.44616H11.4484ZM15.9992 0.870605C24.5527 0.870605 31.4867 7.80436 31.4867 16.3583C31.4867 24.9118 24.5527 31.8455 15.9992 31.8455C7.44568 31.8455 0.511719 24.9118 0.511719 16.3583C0.511719 7.80438 7.44568 0.870605 15.9992 0.870605Z" fill="white"/>
</g>
<defs>
<clipPath id="clip0_2178_9515">
<rect width="32" height="32" fill="white"/>
</clipPath>
</defs>
</svg>
