<svg width="32" height="32" viewBox="0 0 32 32" fill="none" xmlns="http://www.w3.org/2000/svg">
<g id="facebook 1" clip-path="url(#clip0_2178_9509)">
<path id="Vector" fill-rule="evenodd" clip-rule="evenodd" d="M15.9484 0.484863C18.833 0.51778 21.4389 1.22672 23.7662 2.61169C26.0658 3.96902 27.9786 5.89358 29.3219 8.20136C30.6984 10.5427 31.4031 13.1644 31.4359 16.0665C31.3542 20.0374 30.1017 23.4288 27.6786 26.241C25.2555 29.0531 22.1521 30.7928 18.9394 31.4598V20.3268H21.9767L22.6636 15.9518H18.0644V13.0863C18.0389 12.4923 18.2268 11.9087 18.594 11.4411C18.9619 10.9722 19.6096 10.7258 20.5371 10.7018H23.3144V6.86941C23.2746 6.85659 22.8965 6.80589 22.18 6.71731C21.3676 6.62224 20.5505 6.57147 19.7325 6.56521C17.8812 6.57375 16.417 7.09598 15.34 8.13192C14.2629 9.16756 13.7128 10.6659 13.6894 12.627V15.9518H10.1894V20.3268H13.6894V31.4598C9.74477 30.7928 6.64132 29.0531 4.2182 26.241C1.79507 23.4288 0.5427 20.0374 0.460938 16.0665C0.49365 13.1643 1.19831 10.5425 2.57491 8.20136C3.91821 5.89359 5.83109 3.96902 8.13064 2.61169C10.4579 1.22699 13.0638 0.518047 15.9484 0.484863Z" fill="white"/>
</g>
<defs>
<clipPath id="clip0_2178_9509">
<rect width="32" height="32" fill="white"/>
</clipPath>
</defs>
</svg>
