<svg width="38" height="38" viewBox="0 0 38 38" fill="none" xmlns="http://www.w3.org/2000/svg">
<path fill-rule="evenodd" clip-rule="evenodd" d="M26.7071 18.2929C27.0976 18.6834 27.0976 19.3166 26.7071 19.7071L19.7071 26.7071C19.3166 27.0976 18.6834 27.0976 18.2929 26.7071L11.2929 19.7071C11.0976 19.5118 11 19.2558 11 18.9999V14C11 12.3431 12.3431 11 14 11H19.0003C19.2561 11.0001 19.5119 11.0977 19.7071 11.2929L26.7071 18.2929ZM14 15C14.5523 15 15 14.5523 15 14C15 13.4477 14.5523 13 14 13C13.4477 13 13 13.4477 13 14C13 14.5523 13.4477 15 14 15Z" fill="white"/>
<circle cx="19" cy="19" r="14.5" fill="#FF0000" stroke="white"/>
<circle cx="19" cy="19" r="18.5" stroke="#FF0000"/>
<path fill-rule="evenodd" clip-rule="evenodd" d="M26.7071 18.2929C27.0976 18.6834 27.0976 19.3166 26.7071 19.7071L19.7071 26.7071C19.3166 27.0976 18.6834 27.0976 18.2929 26.7071L11.2929 19.7071C11.0976 19.5118 11 19.2558 11 18.9999V14C11 12.3431 12.3431 11 14 11H19.0003C19.2561 11.0001 19.5119 11.0977 19.7071 11.2929L26.7071 18.2929ZM14 15C14.5523 15 15 14.5523 15 14C15 13.4477 14.5523 13 14 13C13.4477 13 13 13.4477 13 14C13 14.5523 13.4477 15 14 15Z" fill="white"/>
</svg>
