<svg width="32" height="32" viewBox="0 0 32 32" fill="none" xmlns="http://www.w3.org/2000/svg">
<path fill-rule="evenodd" clip-rule="evenodd" d="M16 32C24.8366 32 32 24.8366 32 16C32 7.16344 24.8366 0 16 0C7.16344 0 0 7.16344 0 16C0 24.8366 7.16344 32 16 32ZM14.2671 14.9768C14.5253 15.5924 15.1194 16.287 15.6549 16.7818C16.2096 17.2779 16.9423 17.8135 17.577 18.0297C17.5877 18.0297 17.612 18.0366 17.6453 18.046C17.7383 18.0723 17.9016 18.1185 18.0337 18.0895C18.1914 18.0704 18.2906 17.9508 18.4293 17.7728C18.4707 17.7214 18.5081 17.6753 18.5426 17.6328C18.7217 17.4119 18.8218 17.2884 19.0043 17.0388C19.1824 16.82 19.3604 16.7411 19.5398 16.8403L21.5611 17.7728C21.7201 17.8516 21.7786 18.0501 21.799 18.3274C21.8397 18.5652 21.8588 18.8235 21.8193 19.0016C21.7405 19.4175 20.7495 20.3105 19.9761 20.4886C18.311 20.8664 15.9526 19.5371 14.4261 18.1289C12.8997 16.7411 11.3732 14.4997 11.592 12.8143C11.6912 12.0408 12.5028 10.9698 12.8997 10.8311C13.079 10.7917 13.336 10.7917 13.5738 10.7917C13.8524 10.812 14.089 10.8311 14.1692 10.9901L15.0609 13.3104C15.1194 13.4897 14.9807 13.6869 14.8027 13.9057C14.7226 13.998 14.6635 14.0636 14.6131 14.1197C14.5009 14.2445 14.4312 14.3219 14.2671 14.5404C14.1488 14.6995 14.2277 14.8979 14.2671 14.9768ZM10.1444 20.9872L8.99443 23.9028L11.5513 22.2771C12.9841 23.3405 14.7229 23.9109 16.5072 23.9028C21.1451 23.9028 24.8914 20.1337 24.8914 15.4932C24.8929 14.3915 24.6771 13.3004 24.2563 12.2822C23.8356 11.264 23.2181 10.3388 22.4394 9.55958C21.6606 8.78033 20.7358 8.16234 19.7179 7.74097C18.6999 7.31961 17.6089 7.10315 16.5072 7.10399C11.868 7.10399 8.10144 10.8527 8.10144 15.4932C8.09888 17.5108 8.82426 19.4615 10.1444 20.9872ZM6 27.3921L7.58626 21.0458C6.59532 19.4404 6.00127 17.5361 6.00127 15.4919C6.00127 9.70026 10.699 5 16.5072 5C22.2938 5 26.9928 9.70153 26.9928 15.4919C26.9928 21.304 22.2951 26.0043 16.5072 26.0043C14.8223 26.0028 13.1627 25.5944 11.6696 24.8136L6 27.3921Z" fill="white"/>
</svg>
