<svg width="27" height="32" viewBox="0 0 27 32" fill="none" xmlns="http://www.w3.org/2000/svg">
<path id="Subtract" fill-rule="evenodd" clip-rule="evenodd" d="M20.6145 9.25233L22.7999 11.4133L22.7999 11.4132L20.6145 9.2523L20.6145 9.25233ZM13.298 30.2356L13.5002 30.2968L13.7023 30.2356C20.2424 28.2549 25.0474 21.6265 25.0474 14.4568V6.84772L13.5002 1.81075L1.953 6.84772V14.4568C1.953 21.6265 6.75796 28.2549 13.298 30.2356ZM6.38682 16.3312L10.4012 20.2573L20.6128 10.2315L21.8062 11.4115L10.4003 22.61L5.196 17.5003L6.38682 16.3312ZM0.248047 5.78275L13.5002 0L26.7523 5.78275V14.4568C26.7523 22.5432 21.0831 30.0946 13.5002 31.9999C5.9173 30.0946 0.248047 22.5432 0.248047 14.4568V5.78275Z" fill="white"/>
</svg>
