<svg width="32" height="32" viewBox="0 0 32 32" fill="none" xmlns="http://www.w3.org/2000/svg">
<path fill-rule="evenodd" clip-rule="evenodd" d="M16 32C24.8366 32 32 24.8366 32 16C32 7.16344 24.8366 0 16 0C7.16344 0 0 7.16344 0 16C0 24.8366 7.16344 32 16 32ZM13.744 13.4193L13.7448 18.2129L18.3376 15.8242L13.744 13.4193ZM23.1542 10.8951C23.6635 11.4132 23.83 12.5885 23.83 12.5885C23.83 12.5885 24 13.9695 24 15.3499V16.6445C24 18.0255 23.83 19.4055 23.83 19.4055C23.83 19.4055 23.6639 20.5812 23.1542 21.0989C22.5714 21.7115 21.9257 21.7746 21.5606 21.8103C21.5205 21.8142 21.4839 21.8178 21.4511 21.8218C19.0721 21.9947 15.5 22 15.5 22C15.5 22 11.08 21.9594 9.72 21.8285C9.65558 21.8164 9.5775 21.807 9.48908 21.7963C9.05833 21.7444 8.38226 21.6629 7.84539 21.0989C7.33575 20.5812 7.17 19.4055 7.17 19.4055C7.17 19.4055 7 18.0252 7 16.6445V15.3499C7 13.9695 7.17 12.5885 7.17 12.5885C7.17 12.5885 7.33575 11.4128 7.84539 10.8951C8.42954 10.2814 9.07633 10.2191 9.44126 10.184C9.48057 10.1802 9.5166 10.1767 9.54894 10.1729C11.9279 10 15.4961 10 15.4961 10H15.5039C15.5039 10 19.0721 10 21.4511 10.1726C21.4836 10.1765 21.52 10.18 21.5597 10.1838C21.9246 10.2193 22.571 10.282 23.1542 10.8951Z" fill="white"/>
</svg>
