<svg xmlns="http://www.w3.org/2000/svg" width="107.736" height="96.432" viewBox="0 0 107.736 96.432">
  <path id="Path_730" data-name="Path 730" d="M91.773,54.967c.017,1.6.047,3.2.049,4.8q.011,7.3.006,14.593c0,.292.026.583.039.876l.232.148a20.62,20.62,0,0,1,1.564-1.727,9.642,9.642,0,0,1,6.188-2.886c3.093-.075,5.273,1.554,6.8,4.07a7.333,7.333,0,0,1,.043,7.6,15.076,15.076,0,0,1-2.786,3.434C99.791,90.119,95.7,94.394,91.526,98.6a18.568,18.568,0,0,1-13.591,5.661c-10.365.03-20.731-.1-31.092.059A29.428,29.428,0,0,1,33.9,101.438,92.613,92.613,0,0,1,22.515,95.1c-.251-.161-.506-.314-.935-.578V96.4a6.2,6.2,0,0,1-6.449,6.446q-4.352.011-8.7,0A6.189,6.189,0,0,1,0,96.382q0-17.766,0-35.53c0-1.67.566-2.241,2.216-2.241q8.611,0,17.223,0c1.545,0,2.136.592,2.14,2.131v.182c0,2.219,0,2.219,2.174,2.22a23.572,23.572,0,0,1,2.445.017c.882.093,1.022-.277,1.015-1.058-.037-3.746-.016-7.493-.016-11.239,0-4.169-.013-8.338.011-12.507a2.551,2.551,0,0,0-.545-1.657q-6.029-7.993-12.024-16.012c-1.473-1.961-1.451-2.342.324-4.109,1.713-1.705,3.431-3.407,5.123-5.132a11.383,11.383,0,0,1,8.52-3.56q10.243.039,20.487,0a4.018,4.018,0,0,1,4.079,2.429c.738,1.673.321,3.285-1.158,4.765-1.109,1.111-2.21,2.233-3.345,3.318a.6.6,0,0,0-.08.972q5.753,7.632,11.464,15.3a1.232,1.232,0,0,0,1.184.443c9.247,0,18.493.032,27.74-.034a3.212,3.212,0,0,1,3.239,1.865c2.752,4.96,5.619,9.859,8.441,14.782a1.7,1.7,0,0,1-1.5,2.679c-2.144.029-4.29,0-6.436.013-.317,0-.671-.126-.945.161-.212.128-.224.257,0,.387M62.907,38.491c-.569.343-.054.648.08.887,2.063,3.652,4.167,7.281,6.219,10.938a1.178,1.178,0,0,0,1.218.662q12.414-.024,24.827-.01h.781a1.159,1.159,0,0,0-.3-.805c-1.985-3.487-4.018-6.948-5.943-10.468a1.983,1.983,0,0,0-2.041-1.177c-7.852.036-15.705.02-23.559.017-.36,0-.721-.032-1.082-.047-.069-.148-.135-.138-.2,0M88.453,54.967c.218-.13.208-.258,0-.386-.274-.291-.628-.162-.945-.162-6.162-.007-12.324-.021-18.486.009a2.237,2.237,0,0,1-2.184-1.271c-1.663-2.977-3.37-5.929-5.071-8.884-.118-.2-.146-.516-.506-.572v.838q0,14.5,0,28.993c0,2.683,0,2.683,2.586,3.242l.052.138.145-.11c4.525,0,9.049.042,13.574,0,3.582-.032,6.14,1.469,7.538,4.8.218.52.371.4.658.1.856-.891,1.72-1.773,2.581-2.659.128-.021.239-.049.059-.173-.016-.331-.044-.661-.044-.992q0-10.962,0-21.925c0-.331.032-.661.049-.992M57.469,38.488c-.361.017-.721.049-1.082.049q-12.41,0-24.82,0c-.56,0-.942-.016-.939.777q.045,11.549,0,23.1c0,.6.186.757.767.75,2.567-.027,5.134-.02,7.7-.01a18.894,18.894,0,0,1,13.365,5.323c1.577,1.495,3.076,3.071,4.623,4.6.191.186.311.535.7.454.006-.1.014-.193.014-.282q0-16.983,0-33.965c0-.268.053-.547-.153-.775-.052-.152-.113-.149-.181-.01M61.2,100.82c5.56,0,11.12.023,16.68-.007a15.438,15.438,0,0,0,11.292-4.761c4.089-4.153,8.133-8.35,12.185-12.539a10.311,10.311,0,0,0,2.567-3.356,4.107,4.107,0,0,0-1.356-4.87,3.646,3.646,0,0,0-4.509-.568,7.732,7.732,0,0,0-2.113,1.545c-3.935,4.05-7.909,8.062-11.752,12.2a8.444,8.444,0,0,1-6.687,3.127c-7.461-.116-14.925,0-22.388-.056A22.623,22.623,0,0,1,43.83,88.346a1.7,1.7,0,0,1-.959-1.789,1.675,1.675,0,0,1,2.659-1.225A20.2,20.2,0,0,0,55,88.078c7.795.063,15.591.024,23.387.017a4.219,4.219,0,0,0,3.747-3.569,3.914,3.914,0,0,0-4.117-4.258c-4.29-.021-8.58,0-12.871-.01a13.656,13.656,0,0,1-9.863-4.073c-1.552-1.525-3.1-3.056-4.613-4.616a15.942,15.942,0,0,0-12.023-4.982q-8.067.041-16.135-.013c-.75-.006-.959.178-.956.939q.045,11.011.007,22.024a1.241,1.241,0,0,0,.6,1.184A96.3,96.3,0,0,0,35.1,98.191a24.284,24.284,0,0,0,11.151,2.667c4.981-.153,9.97-.037,14.956-.037M3.447,79.711q0,8.333,0,16.665A2.813,2.813,0,0,0,6.436,99.4q4.347.015,8.7,0a2.8,2.8,0,0,0,3-3.005q.011-16.757.021-33.514c0-.708-.231-.837-.874-.833-4.319.026-8.637.033-12.955,0-.735-.006-.89.219-.886.912.027,5.587.014,11.172.013,16.757M55.879,34.98a6.1,6.1,0,0,0-.318-.526Q50.513,27.71,45.467,20.965a1.321,1.321,0,0,0-1.234-.532q-11.963.017-23.927.014a3.657,3.657,0,0,0-1.395.085c.093.148.161.274.245.386q5.108,6.815,10.207,13.635a1.41,1.41,0,0,0,1.312.569q12.1-.015,24.2-.011a1.585,1.585,0,0,0,1-.13M19.713,16.756a.756.756,0,0,0,.687.2q12.087.009,24.173.017a1.428,1.428,0,0,0,1.1-.489c1.269-1.293,2.56-2.561,3.833-3.85.241-.244.649-.439.5-.881-.172-.49-.635-.384-1.009-.384q-10.32,0-20.642.007a8.726,8.726,0,0,0-1.971.218c-3.037.7-4.5,3.345-6.667,5.164" transform="translate(0 -7.887)" fill="#ffffff"/>
</svg>