<svg width="43" height="32" viewBox="0 0 43 32" fill="none" xmlns="http://www.w3.org/2000/svg">
<path id="Subtract" fill-rule="evenodd" clip-rule="evenodd" d="M40.0619 22.8108C40.0619 22.8108 40.0619 22.8108 40.0619 22.8108C40.0688 22.8351 40.0756 22.8595 40.0822 22.8839M3.33794 12.4659H4.76667V7.69961H0.5V5.76238H4.76667V0H29.9676V4.79371H38.8941L42.5 12.7258V25.3078H39.858L39.7905 25.581C39.2923 27.5975 37.6152 29.0907 35.6208 29.0907C33.6265 29.0907 31.9494 27.5975 31.4512 25.581L31.3837 25.3078H19.1147L19.0472 25.5809C18.5484 27.5975 16.8713 29.0907 14.8769 29.0907C12.8825 29.0907 11.2055 27.5975 10.7073 25.581L10.6398 25.3078H4.76667V14.4032H3.33794V12.4659ZM34.5762 11.9846H40.1849L37.7961 6.73095H34.5762V11.9846ZM32.8048 13.9219V6.73095H29.9682V23.3706H31.383L31.4506 23.0975C31.9494 21.0809 33.6265 19.5878 35.6208 19.5878C37.6152 19.5878 39.2923 21.0809 39.7905 23.0974L39.858 23.3706H40.7286V13.9219H32.8048ZM28.1968 1.93724H6.5381V5.76238H8.78602V7.69961H6.5381V12.4659H11.624V14.4032H6.5381V23.3706H10.6392L10.7067 23.0974C11.2049 21.0809 12.8813 19.5878 14.8763 19.5878C16.8713 19.5878 18.5478 21.0809 19.0466 23.0975L19.1141 23.3706H28.1968V1.93724ZM12.3231 24.3392C12.3231 25.8967 13.473 27.1534 14.8769 27.1534C16.2809 27.1534 17.4307 25.8967 17.4307 24.3392C17.4307 22.7818 16.2809 21.525 14.8769 21.525C13.473 21.525 12.3231 22.7818 12.3231 24.3392ZM33.067 24.3392C33.067 25.8967 34.2169 27.1534 35.6208 27.1534C37.0241 27.1534 38.1747 25.8967 38.1747 24.3392C38.1747 22.7817 37.0241 21.525 35.6208 21.525C34.2169 21.525 33.067 22.7818 33.067 24.3392ZM1.71905 30.0628H10.0051V32H1.71905V30.0628Z" fill="white"/>
</svg>
